<svg xmlns="http://www.w3.org/2000/svg" width="760" height="368" viewBox="0 0 760 368" font-family="-apple-system,BlinkMacSystemFont,'Segoe UI',Helvetica,Arial,sans-serif">
<rect width="760" height="368" fill="#ffffff"/>
<text x="24" y="30" font-size="15" font-weight="600" fill="#1c1c1c">第三方參考邊集：資料集的邊，工具畫到多少</text>
<text x="24" y="50" font-size="11.5" fill="#6f6f6f">參考邊集＝MicroDepGraph 資料集自己發表的圖（SattoSE 2019）；每個 repo checkout 到資料集擷取日之前的 commit</text>
<text x="196" y="89.8" font-size="11.5" fill="#1c1c1c" text-anchor="end">spring-cloud-netflix</text>
<rect x="208" y="74" width="420.0" height="22" fill="#e8e8e6"/>
<rect x="208" y="74" width="420.0" height="22" fill="#2a78d6"/>
<text x="674.0" y="89.8" font-size="11.5" fill="#1c1c1c" text-anchor="end">26/26</text>
<text x="732.0" y="89.8" font-size="11.5" font-weight="600" text-anchor="end" fill="#1baf7a">1.00</text>
<text x="196" y="123.8" font-size="11.5" fill="#1c1c1c" text-anchor="end">robot-shop</text>
<rect x="208" y="108" width="193.8" height="22" fill="#e8e8e6"/>
<rect x="208" y="108" width="193.8" height="22" fill="#2a78d6"/>
<text x="674.0" y="123.8" font-size="11.5" fill="#1c1c1c" text-anchor="end">12/12</text>
<text x="732.0" y="123.8" font-size="11.5" font-weight="600" text-anchor="end" fill="#1baf7a">1.00</text>
<text x="196" y="157.8" font-size="11.5" fill="#1c1c1c" text-anchor="end">lakeside-mutual</text>
<rect x="208" y="142" width="145.4" height="22" fill="#e8e8e6"/>
<rect x="208" y="142" width="145.4" height="22" fill="#2a78d6"/>
<text x="674.0" y="157.8" font-size="11.5" fill="#1c1c1c" text-anchor="end">9/9</text>
<text x="732.0" y="157.8" font-size="11.5" font-weight="600" text-anchor="end" fill="#1baf7a">1.00</text>
<text x="196" y="191.8" font-size="11.5" fill="#1c1c1c" text-anchor="end">microservices-book</text>
<rect x="208" y="176" width="80.8" height="22" fill="#e8e8e6"/>
<rect x="208" y="176" width="80.8" height="22" fill="#2a78d6"/>
<text x="674.0" y="191.8" font-size="11.5" fill="#1c1c1c" text-anchor="end">5/5</text>
<text x="732.0" y="191.8" font-size="11.5" font-weight="600" text-anchor="end" fill="#1baf7a">1.00</text>
<text x="196" y="225.8" font-size="11.5" fill="#1c1c1c" text-anchor="end">tap-and-eat</text>
<rect x="208" y="210" width="64.6" height="22" fill="#e8e8e6"/>
<rect x="208" y="210" width="64.6" height="22" fill="#2a78d6"/>
<text x="674.0" y="225.8" font-size="11.5" fill="#1c1c1c" text-anchor="end">4/4</text>
<text x="732.0" y="225.8" font-size="11.5" font-weight="600" text-anchor="end" fill="#1baf7a">1.00</text>
<text x="196" y="259.8" font-size="11.5" fill="#1c1c1c" text-anchor="end">spring-cloud-microservice</text>
<rect x="208" y="244" width="420.0" height="22" fill="#e8e8e6"/>
<rect x="208" y="244" width="387.7" height="22" fill="#2a78d6"/>
<text x="674.0" y="259.8" font-size="11.5" fill="#1c1c1c" text-anchor="end">24/26</text>
<text x="732.0" y="259.8" font-size="11.5" font-weight="600" text-anchor="end" fill="#1c1c1c">0.92</text>
<text x="196" y="293.8" font-size="11.5" fill="#1c1c1c" text-anchor="end">spring-petclinic</text>
<rect x="208" y="278" width="210.0" height="22" fill="#e8e8e6"/>
<rect x="208" y="278" width="177.7" height="22" fill="#2a78d6"/>
<text x="674.0" y="293.8" font-size="11.5" fill="#1c1c1c" text-anchor="end">11/13</text>
<text x="732.0" y="293.8" font-size="11.5" font-weight="600" text-anchor="end" fill="#1c1c1c">0.85</text>
<line x1="208" y1="308" x2="628" y2="308" stroke="#b9b9b5" stroke-width="1"/>
<text x="196" y="328" font-size="11.5" font-weight="600" fill="#1c1c1c" text-anchor="end">合計</text>
<text x="208" y="328" font-size="11.5" fill="#1c1c1c">7 個專案</text>
<text x="674.0" y="328" font-size="11.5" font-weight="600" fill="#1c1c1c" text-anchor="end">91/95</text>
<text x="732.0" y="328" font-size="11.5" font-weight="600" fill="#1c1c1c" text-anchor="end">0.96</text>
<rect x="208" y="348" width="11" height="11" fill="#2a78d6"/>
<text x="225" y="357" font-size="11" fill="#6f6f6f">工具畫到</text>
<rect x="292" y="348" width="11" height="11" fill="#e8e8e6"/>
<text x="309" y="357" font-size="11" fill="#6f6f6f">資料集有、工具沒畫</text>
</svg>
