<svg xmlns="http://www.w3.org/2000/svg" width="720" height="400" viewBox="0 0 720 400" font-family="-apple-system,BlinkMacSystemFont,'Segoe UI',Helvetica,Arial,sans-serif">
<rect width="720" height="400" fill="#ffffff"/>
<text x="72" y="26" font-size="15" font-weight="600" fill="#1c1c1c">Router coverage vs the threshold T</text>
<text x="72" y="44" font-size="11.5" fill="#6f6f6f">102 hold-out questions, H=0.80; each curve is one margin M</text>
<line x1="72" y1="344.0" x2="588" y2="344.0" stroke="#e8e8e6" stroke-width="1"/>
<text x="62" y="348.0" font-size="11" fill="#6f6f6f" text-anchor="end">0%</text>
<line x1="72" y1="278.7" x2="588" y2="278.7" stroke="#e8e8e6" stroke-width="1"/>
<text x="62" y="282.7" font-size="11" fill="#6f6f6f" text-anchor="end">20%</text>
<line x1="72" y1="213.4" x2="588" y2="213.4" stroke="#e8e8e6" stroke-width="1"/>
<text x="62" y="217.4" font-size="11" fill="#6f6f6f" text-anchor="end">40%</text>
<line x1="72" y1="148.1" x2="588" y2="148.1" stroke="#e8e8e6" stroke-width="1"/>
<text x="62" y="152.1" font-size="11" fill="#6f6f6f" text-anchor="end">60%</text>
<line x1="72" y1="82.8" x2="588" y2="82.8" stroke="#e8e8e6" stroke-width="1"/>
<text x="62" y="86.8" font-size="11" fill="#6f6f6f" text-anchor="end">80%</text>
<line x1="72.0" y1="344" x2="72.0" y2="348" stroke="#b9b9b5" stroke-width="1"/>
<text x="72.0" y="362.0" font-size="11" fill="#6f6f6f" text-anchor="middle">0.4</text>
<line x1="186.7" y1="344" x2="186.7" y2="348" stroke="#b9b9b5" stroke-width="1"/>
<text x="186.7" y="362.0" font-size="11" fill="#6f6f6f" text-anchor="middle">0.5</text>
<line x1="301.3" y1="344" x2="301.3" y2="348" stroke="#b9b9b5" stroke-width="1"/>
<text x="301.3" y="362.0" font-size="11" fill="#6f6f6f" text-anchor="middle">0.6</text>
<line x1="416.0" y1="344" x2="416.0" y2="348" stroke="#b9b9b5" stroke-width="1"/>
<text x="416.0" y="362.0" font-size="11" fill="#6f6f6f" text-anchor="middle">0.7</text>
<line x1="530.7" y1="344" x2="530.7" y2="348" stroke="#b9b9b5" stroke-width="1"/>
<text x="530.7" y="362.0" font-size="11" fill="#6f6f6f" text-anchor="middle">0.8</text>
<line x1="72" y1="344" x2="588" y2="344" stroke="#b9b9b5" stroke-width="1"/>
<path d="M72.0,56.0 L83.5,58.9 L94.9,58.9 L106.4,58.9 L117.9,58.9 L129.3,58.9 L140.8,58.9 L152.3,68.7 L163.7,74.9 L175.2,81.5 L186.7,88.0 L198.1,100.7 L209.6,107.3 L221.1,110.2 L232.5,113.5 L244.0,123.3 L255.5,129.5 L266.9,132.7 L278.4,142.2 L289.9,152.0 L301.3,174.2 L312.8,180.7 L324.3,203.3 L335.7,216.0 L347.2,225.5 L358.7,235.3 L370.1,251.3 L381.6,254.2 L393.1,260.7 L404.5,270.5 L416.0,286.5 L427.5,289.5 L438.9,296.0 L450.4,299.3 L461.9,305.5 L473.3,305.5 L484.8,318.5 L496.3,318.5 L507.7,321.5 L519.2,324.7 L530.7,328.0 L542.1,328.0 L553.6,328.0 L565.1,328.0 L576.5,328.0 L588.0,328.0" fill="none" stroke="#2a78d6" stroke-width="2" stroke-linejoin="round" stroke-linecap="round"/>
<circle cx="72.0" cy="56.0" r="4" fill="#2a78d6" stroke="#ffffff" stroke-width="2"/>
<circle cx="83.5" cy="58.9" r="4" fill="#2a78d6" stroke="#ffffff" stroke-width="2"/>
<circle cx="94.9" cy="58.9" r="4" fill="#2a78d6" stroke="#ffffff" stroke-width="2"/>
<circle cx="106.4" cy="58.9" r="4" fill="#2a78d6" stroke="#ffffff" stroke-width="2"/>
<circle cx="117.9" cy="58.9" r="4" fill="#2a78d6" stroke="#ffffff" stroke-width="2"/>
<circle cx="129.3" cy="58.9" r="4" fill="#2a78d6" stroke="#ffffff" stroke-width="2"/>
<circle cx="140.8" cy="58.9" r="4" fill="#2a78d6" stroke="#ffffff" stroke-width="2"/>
<circle cx="152.3" cy="68.7" r="4" fill="#2a78d6" stroke="#ffffff" stroke-width="2"/>
<circle cx="163.7" cy="74.9" r="4" fill="#2a78d6" stroke="#ffffff" stroke-width="2"/>
<circle cx="175.2" cy="81.5" r="4" fill="#2a78d6" stroke="#ffffff" stroke-width="2"/>
<circle cx="186.7" cy="88.0" r="4" fill="#2a78d6" stroke="#ffffff" stroke-width="2"/>
<circle cx="198.1" cy="100.7" r="4" fill="#2a78d6" stroke="#ffffff" stroke-width="2"/>
<circle cx="209.6" cy="107.3" r="4" fill="#2a78d6" stroke="#ffffff" stroke-width="2"/>
<circle cx="221.1" cy="110.2" r="4" fill="#2a78d6" stroke="#ffffff" stroke-width="2"/>
<circle cx="232.5" cy="113.5" r="4" fill="#2a78d6" stroke="#ffffff" stroke-width="2"/>
<circle cx="244.0" cy="123.3" r="4" fill="#2a78d6" stroke="#ffffff" stroke-width="2"/>
<circle cx="255.5" cy="129.5" r="4" fill="#2a78d6" stroke="#ffffff" stroke-width="2"/>
<circle cx="266.9" cy="132.7" r="4" fill="#2a78d6" stroke="#ffffff" stroke-width="2"/>
<circle cx="278.4" cy="142.2" r="4" fill="#2a78d6" stroke="#ffffff" stroke-width="2"/>
<circle cx="289.9" cy="152.0" r="4" fill="#2a78d6" stroke="#ffffff" stroke-width="2"/>
<circle cx="301.3" cy="174.2" r="4" fill="#2a78d6" stroke="#ffffff" stroke-width="2"/>
<circle cx="312.8" cy="180.7" r="4" fill="#2a78d6" stroke="#ffffff" stroke-width="2"/>
<circle cx="324.3" cy="203.3" r="4" fill="#2a78d6" stroke="#ffffff" stroke-width="2"/>
<circle cx="335.7" cy="216.0" r="4" fill="#2a78d6" stroke="#ffffff" stroke-width="2"/>
<circle cx="347.2" cy="225.5" r="4" fill="#2a78d6" stroke="#ffffff" stroke-width="2"/>
<circle cx="358.7" cy="235.3" r="4" fill="#2a78d6" stroke="#ffffff" stroke-width="2"/>
<circle cx="370.1" cy="251.3" r="4" fill="#2a78d6" stroke="#ffffff" stroke-width="2"/>
<circle cx="381.6" cy="254.2" r="4" fill="#2a78d6" stroke="#ffffff" stroke-width="2"/>
<circle cx="393.1" cy="260.7" r="4" fill="#2a78d6" stroke="#ffffff" stroke-width="2"/>
<circle cx="404.5" cy="270.5" r="4" fill="#2a78d6" stroke="#ffffff" stroke-width="2"/>
<circle cx="416.0" cy="286.5" r="4" fill="#2a78d6" stroke="#ffffff" stroke-width="2"/>
<circle cx="427.5" cy="289.5" r="4" fill="#2a78d6" stroke="#ffffff" stroke-width="2"/>
<circle cx="438.9" cy="296.0" r="4" fill="#2a78d6" stroke="#ffffff" stroke-width="2"/>
<circle cx="450.4" cy="299.3" r="4" fill="#2a78d6" stroke="#ffffff" stroke-width="2"/>
<circle cx="461.9" cy="305.5" r="4" fill="#2a78d6" stroke="#ffffff" stroke-width="2"/>
<circle cx="473.3" cy="305.5" r="4" fill="#2a78d6" stroke="#ffffff" stroke-width="2"/>
<circle cx="484.8" cy="318.5" r="4" fill="#2a78d6" stroke="#ffffff" stroke-width="2"/>
<circle cx="496.3" cy="318.5" r="4" fill="#2a78d6" stroke="#ffffff" stroke-width="2"/>
<circle cx="507.7" cy="321.5" r="4" fill="#2a78d6" stroke="#ffffff" stroke-width="2"/>
<circle cx="519.2" cy="324.7" r="4" fill="#2a78d6" stroke="#ffffff" stroke-width="2"/>
<circle cx="530.7" cy="328.0" r="4" fill="#2a78d6" stroke="#ffffff" stroke-width="2"/>
<circle cx="542.1" cy="328.0" r="4" fill="#2a78d6" stroke="#ffffff" stroke-width="2"/>
<circle cx="553.6" cy="328.0" r="4" fill="#2a78d6" stroke="#ffffff" stroke-width="2"/>
<circle cx="565.1" cy="328.0" r="4" fill="#2a78d6" stroke="#ffffff" stroke-width="2"/>
<circle cx="576.5" cy="328.0" r="4" fill="#2a78d6" stroke="#ffffff" stroke-width="2"/>
<circle cx="588.0" cy="328.0" r="4" fill="#2a78d6" stroke="#ffffff" stroke-width="2"/>
<text x="598.0" y="332.0" font-size="11.5" fill="#1c1c1c">M=0.00</text>
<path d="M72.0,155.3 L83.5,155.3 L94.9,155.3 L106.4,155.3 L117.9,155.3 L129.3,155.3 L140.8,155.3 L152.3,155.3 L163.7,155.3 L175.2,158.2 L186.7,161.5 L198.1,168.0 L209.6,171.3 L221.1,174.2 L232.5,177.5 L244.0,184.0 L255.5,187.3 L266.9,187.3 L278.4,193.5 L289.9,203.3 L301.3,225.5 L312.8,232.0 L324.3,248.0 L335.7,251.3 L347.2,260.7 L358.7,267.3 L370.1,276.7 L381.6,276.7 L393.1,276.7 L404.5,286.5 L416.0,299.3 L427.5,299.3 L438.9,302.5 L450.4,305.5 L461.9,308.7 L473.3,308.7 L484.8,318.5 L496.3,318.5 L507.7,321.5 L519.2,324.7 L530.7,328.0 L542.1,328.0 L553.6,328.0 L565.1,328.0 L576.5,328.0 L588.0,328.0" fill="none" stroke="#eb6834" stroke-width="2" stroke-linejoin="round" stroke-linecap="round"/>
<circle cx="72.0" cy="155.3" r="4" fill="#eb6834" stroke="#ffffff" stroke-width="2"/>
<circle cx="83.5" cy="155.3" r="4" fill="#eb6834" stroke="#ffffff" stroke-width="2"/>
<circle cx="94.9" cy="155.3" r="4" fill="#eb6834" stroke="#ffffff" stroke-width="2"/>
<circle cx="106.4" cy="155.3" r="4" fill="#eb6834" stroke="#ffffff" stroke-width="2"/>
<circle cx="117.9" cy="155.3" r="4" fill="#eb6834" stroke="#ffffff" stroke-width="2"/>
<circle cx="129.3" cy="155.3" r="4" fill="#eb6834" stroke="#ffffff" stroke-width="2"/>
<circle cx="140.8" cy="155.3" r="4" fill="#eb6834" stroke="#ffffff" stroke-width="2"/>
<circle cx="152.3" cy="155.3" r="4" fill="#eb6834" stroke="#ffffff" stroke-width="2"/>
<circle cx="163.7" cy="155.3" r="4" fill="#eb6834" stroke="#ffffff" stroke-width="2"/>
<circle cx="175.2" cy="158.2" r="4" fill="#eb6834" stroke="#ffffff" stroke-width="2"/>
<circle cx="186.7" cy="161.5" r="4" fill="#eb6834" stroke="#ffffff" stroke-width="2"/>
<circle cx="198.1" cy="168.0" r="4" fill="#eb6834" stroke="#ffffff" stroke-width="2"/>
<circle cx="209.6" cy="171.3" r="4" fill="#eb6834" stroke="#ffffff" stroke-width="2"/>
<circle cx="221.1" cy="174.2" r="4" fill="#eb6834" stroke="#ffffff" stroke-width="2"/>
<circle cx="232.5" cy="177.5" r="4" fill="#eb6834" stroke="#ffffff" stroke-width="2"/>
<circle cx="244.0" cy="184.0" r="4" fill="#eb6834" stroke="#ffffff" stroke-width="2"/>
<circle cx="255.5" cy="187.3" r="4" fill="#eb6834" stroke="#ffffff" stroke-width="2"/>
<circle cx="266.9" cy="187.3" r="4" fill="#eb6834" stroke="#ffffff" stroke-width="2"/>
<circle cx="278.4" cy="193.5" r="4" fill="#eb6834" stroke="#ffffff" stroke-width="2"/>
<circle cx="289.9" cy="203.3" r="4" fill="#eb6834" stroke="#ffffff" stroke-width="2"/>
<circle cx="301.3" cy="225.5" r="4" fill="#eb6834" stroke="#ffffff" stroke-width="2"/>
<circle cx="312.8" cy="232.0" r="4" fill="#eb6834" stroke="#ffffff" stroke-width="2"/>
<circle cx="324.3" cy="248.0" r="4" fill="#eb6834" stroke="#ffffff" stroke-width="2"/>
<circle cx="335.7" cy="251.3" r="4" fill="#eb6834" stroke="#ffffff" stroke-width="2"/>
<circle cx="347.2" cy="260.7" r="4" fill="#eb6834" stroke="#ffffff" stroke-width="2"/>
<circle cx="358.7" cy="267.3" r="4" fill="#eb6834" stroke="#ffffff" stroke-width="2"/>
<circle cx="370.1" cy="276.7" r="4" fill="#eb6834" stroke="#ffffff" stroke-width="2"/>
<circle cx="381.6" cy="276.7" r="4" fill="#eb6834" stroke="#ffffff" stroke-width="2"/>
<circle cx="393.1" cy="276.7" r="4" fill="#eb6834" stroke="#ffffff" stroke-width="2"/>
<circle cx="404.5" cy="286.5" r="4" fill="#eb6834" stroke="#ffffff" stroke-width="2"/>
<circle cx="416.0" cy="299.3" r="4" fill="#eb6834" stroke="#ffffff" stroke-width="2"/>
<circle cx="427.5" cy="299.3" r="4" fill="#eb6834" stroke="#ffffff" stroke-width="2"/>
<circle cx="438.9" cy="302.5" r="4" fill="#eb6834" stroke="#ffffff" stroke-width="2"/>
<circle cx="450.4" cy="305.5" r="4" fill="#eb6834" stroke="#ffffff" stroke-width="2"/>
<circle cx="461.9" cy="308.7" r="4" fill="#eb6834" stroke="#ffffff" stroke-width="2"/>
<circle cx="473.3" cy="308.7" r="4" fill="#eb6834" stroke="#ffffff" stroke-width="2"/>
<circle cx="484.8" cy="318.5" r="4" fill="#eb6834" stroke="#ffffff" stroke-width="2"/>
<circle cx="496.3" cy="318.5" r="4" fill="#eb6834" stroke="#ffffff" stroke-width="2"/>
<circle cx="507.7" cy="321.5" r="4" fill="#eb6834" stroke="#ffffff" stroke-width="2"/>
<circle cx="519.2" cy="324.7" r="4" fill="#eb6834" stroke="#ffffff" stroke-width="2"/>
<circle cx="530.7" cy="328.0" r="4" fill="#eb6834" stroke="#ffffff" stroke-width="2"/>
<circle cx="542.1" cy="328.0" r="4" fill="#eb6834" stroke="#ffffff" stroke-width="2"/>
<circle cx="553.6" cy="328.0" r="4" fill="#eb6834" stroke="#ffffff" stroke-width="2"/>
<circle cx="565.1" cy="328.0" r="4" fill="#eb6834" stroke="#ffffff" stroke-width="2"/>
<circle cx="576.5" cy="328.0" r="4" fill="#eb6834" stroke="#ffffff" stroke-width="2"/>
<circle cx="588.0" cy="328.0" r="4" fill="#eb6834" stroke="#ffffff" stroke-width="2"/>
<text x="598.0" y="332.0" font-size="11.5" fill="#1c1c1c">M=0.04</text>
<path d="M72.0,212.7 L83.5,212.7 L94.9,212.7 L106.4,212.7 L117.9,212.7 L129.3,212.7 L140.8,212.7 L152.3,212.7 L163.7,212.7 L175.2,212.7 L186.7,216.0 L198.1,219.3 L209.6,222.2 L221.1,225.5 L232.5,225.5 L244.0,228.7 L255.5,232.0 L266.9,232.0 L278.4,235.3 L289.9,238.2 L301.3,254.2 L312.8,260.7 L324.3,273.5 L335.7,273.5 L347.2,276.7 L358.7,283.3 L370.1,289.5 L381.6,289.5 L393.1,289.5 L404.5,299.3 L416.0,312.0 L427.5,312.0 L438.9,315.3 L450.4,315.3 L461.9,315.3 L473.3,315.3 L484.8,324.7 L496.3,324.7 L507.7,328.0 L519.2,328.0 L530.7,328.0 L542.1,328.0 L553.6,328.0 L565.1,328.0 L576.5,328.0 L588.0,328.0" fill="none" stroke="#1baf7a" stroke-width="2" stroke-linejoin="round" stroke-linecap="round"/>
<circle cx="72.0" cy="212.7" r="4" fill="#1baf7a" stroke="#ffffff" stroke-width="2"/>
<circle cx="83.5" cy="212.7" r="4" fill="#1baf7a" stroke="#ffffff" stroke-width="2"/>
<circle cx="94.9" cy="212.7" r="4" fill="#1baf7a" stroke="#ffffff" stroke-width="2"/>
<circle cx="106.4" cy="212.7" r="4" fill="#1baf7a" stroke="#ffffff" stroke-width="2"/>
<circle cx="117.9" cy="212.7" r="4" fill="#1baf7a" stroke="#ffffff" stroke-width="2"/>
<circle cx="129.3" cy="212.7" r="4" fill="#1baf7a" stroke="#ffffff" stroke-width="2"/>
<circle cx="140.8" cy="212.7" r="4" fill="#1baf7a" stroke="#ffffff" stroke-width="2"/>
<circle cx="152.3" cy="212.7" r="4" fill="#1baf7a" stroke="#ffffff" stroke-width="2"/>
<circle cx="163.7" cy="212.7" r="4" fill="#1baf7a" stroke="#ffffff" stroke-width="2"/>
<circle cx="175.2" cy="212.7" r="4" fill="#1baf7a" stroke="#ffffff" stroke-width="2"/>
<circle cx="186.7" cy="216.0" r="4" fill="#1baf7a" stroke="#ffffff" stroke-width="2"/>
<circle cx="198.1" cy="219.3" r="4" fill="#1baf7a" stroke="#ffffff" stroke-width="2"/>
<circle cx="209.6" cy="222.2" r="4" fill="#1baf7a" stroke="#ffffff" stroke-width="2"/>
<circle cx="221.1" cy="225.5" r="4" fill="#1baf7a" stroke="#ffffff" stroke-width="2"/>
<circle cx="232.5" cy="225.5" r="4" fill="#1baf7a" stroke="#ffffff" stroke-width="2"/>
<circle cx="244.0" cy="228.7" r="4" fill="#1baf7a" stroke="#ffffff" stroke-width="2"/>
<circle cx="255.5" cy="232.0" r="4" fill="#1baf7a" stroke="#ffffff" stroke-width="2"/>
<circle cx="266.9" cy="232.0" r="4" fill="#1baf7a" stroke="#ffffff" stroke-width="2"/>
<circle cx="278.4" cy="235.3" r="4" fill="#1baf7a" stroke="#ffffff" stroke-width="2"/>
<circle cx="289.9" cy="238.2" r="4" fill="#1baf7a" stroke="#ffffff" stroke-width="2"/>
<circle cx="301.3" cy="254.2" r="4" fill="#1baf7a" stroke="#ffffff" stroke-width="2"/>
<circle cx="312.8" cy="260.7" r="4" fill="#1baf7a" stroke="#ffffff" stroke-width="2"/>
<circle cx="324.3" cy="273.5" r="4" fill="#1baf7a" stroke="#ffffff" stroke-width="2"/>
<circle cx="335.7" cy="273.5" r="4" fill="#1baf7a" stroke="#ffffff" stroke-width="2"/>
<circle cx="347.2" cy="276.7" r="4" fill="#1baf7a" stroke="#ffffff" stroke-width="2"/>
<circle cx="358.7" cy="283.3" r="4" fill="#1baf7a" stroke="#ffffff" stroke-width="2"/>
<circle cx="370.1" cy="289.5" r="4" fill="#1baf7a" stroke="#ffffff" stroke-width="2"/>
<circle cx="381.6" cy="289.5" r="4" fill="#1baf7a" stroke="#ffffff" stroke-width="2"/>
<circle cx="393.1" cy="289.5" r="4" fill="#1baf7a" stroke="#ffffff" stroke-width="2"/>
<circle cx="404.5" cy="299.3" r="4" fill="#1baf7a" stroke="#ffffff" stroke-width="2"/>
<circle cx="416.0" cy="312.0" r="4" fill="#1baf7a" stroke="#ffffff" stroke-width="2"/>
<circle cx="427.5" cy="312.0" r="4" fill="#1baf7a" stroke="#ffffff" stroke-width="2"/>
<circle cx="438.9" cy="315.3" r="4" fill="#1baf7a" stroke="#ffffff" stroke-width="2"/>
<circle cx="450.4" cy="315.3" r="4" fill="#1baf7a" stroke="#ffffff" stroke-width="2"/>
<circle cx="461.9" cy="315.3" r="4" fill="#1baf7a" stroke="#ffffff" stroke-width="2"/>
<circle cx="473.3" cy="315.3" r="4" fill="#1baf7a" stroke="#ffffff" stroke-width="2"/>
<circle cx="484.8" cy="324.7" r="4" fill="#1baf7a" stroke="#ffffff" stroke-width="2"/>
<circle cx="496.3" cy="324.7" r="4" fill="#1baf7a" stroke="#ffffff" stroke-width="2"/>
<circle cx="507.7" cy="328.0" r="4" fill="#1baf7a" stroke="#ffffff" stroke-width="2"/>
<circle cx="519.2" cy="328.0" r="4" fill="#1baf7a" stroke="#ffffff" stroke-width="2"/>
<circle cx="530.7" cy="328.0" r="4" fill="#1baf7a" stroke="#ffffff" stroke-width="2"/>
<circle cx="542.1" cy="328.0" r="4" fill="#1baf7a" stroke="#ffffff" stroke-width="2"/>
<circle cx="553.6" cy="328.0" r="4" fill="#1baf7a" stroke="#ffffff" stroke-width="2"/>
<circle cx="565.1" cy="328.0" r="4" fill="#1baf7a" stroke="#ffffff" stroke-width="2"/>
<circle cx="576.5" cy="328.0" r="4" fill="#1baf7a" stroke="#ffffff" stroke-width="2"/>
<circle cx="588.0" cy="328.0" r="4" fill="#1baf7a" stroke="#ffffff" stroke-width="2"/>
<text x="598.0" y="332.0" font-size="11.5" fill="#1c1c1c">M=0.08</text>
<path d="M72.0,241.5 L83.5,241.5 L94.9,241.5 L106.4,241.5 L117.9,241.5 L129.3,241.5 L140.8,241.5 L152.3,241.5 L163.7,241.5 L175.2,241.5 L186.7,241.5 L198.1,244.7 L209.6,248.0 L221.1,248.0 L232.5,248.0 L244.0,248.0 L255.5,251.3 L266.9,251.3 L278.4,254.2 L289.9,257.5 L301.3,267.3 L312.8,273.5 L324.3,280.0 L335.7,280.0 L347.2,283.3 L358.7,289.5 L370.1,292.7 L381.6,292.7 L393.1,292.7 L404.5,302.5 L416.0,315.3 L427.5,315.3 L438.9,315.3 L450.4,315.3 L461.9,315.3 L473.3,315.3 L484.8,324.7 L496.3,324.7 L507.7,328.0 L519.2,328.0 L530.7,328.0 L542.1,328.0 L553.6,328.0 L565.1,328.0 L576.5,328.0 L588.0,328.0" fill="none" stroke="#eda100" stroke-width="2" stroke-linejoin="round" stroke-linecap="round"/>
<circle cx="72.0" cy="241.5" r="4" fill="#eda100" stroke="#ffffff" stroke-width="2"/>
<circle cx="83.5" cy="241.5" r="4" fill="#eda100" stroke="#ffffff" stroke-width="2"/>
<circle cx="94.9" cy="241.5" r="4" fill="#eda100" stroke="#ffffff" stroke-width="2"/>
<circle cx="106.4" cy="241.5" r="4" fill="#eda100" stroke="#ffffff" stroke-width="2"/>
<circle cx="117.9" cy="241.5" r="4" fill="#eda100" stroke="#ffffff" stroke-width="2"/>
<circle cx="129.3" cy="241.5" r="4" fill="#eda100" stroke="#ffffff" stroke-width="2"/>
<circle cx="140.8" cy="241.5" r="4" fill="#eda100" stroke="#ffffff" stroke-width="2"/>
<circle cx="152.3" cy="241.5" r="4" fill="#eda100" stroke="#ffffff" stroke-width="2"/>
<circle cx="163.7" cy="241.5" r="4" fill="#eda100" stroke="#ffffff" stroke-width="2"/>
<circle cx="175.2" cy="241.5" r="4" fill="#eda100" stroke="#ffffff" stroke-width="2"/>
<circle cx="186.7" cy="241.5" r="4" fill="#eda100" stroke="#ffffff" stroke-width="2"/>
<circle cx="198.1" cy="244.7" r="4" fill="#eda100" stroke="#ffffff" stroke-width="2"/>
<circle cx="209.6" cy="248.0" r="4" fill="#eda100" stroke="#ffffff" stroke-width="2"/>
<circle cx="221.1" cy="248.0" r="4" fill="#eda100" stroke="#ffffff" stroke-width="2"/>
<circle cx="232.5" cy="248.0" r="4" fill="#eda100" stroke="#ffffff" stroke-width="2"/>
<circle cx="244.0" cy="248.0" r="4" fill="#eda100" stroke="#ffffff" stroke-width="2"/>
<circle cx="255.5" cy="251.3" r="4" fill="#eda100" stroke="#ffffff" stroke-width="2"/>
<circle cx="266.9" cy="251.3" r="4" fill="#eda100" stroke="#ffffff" stroke-width="2"/>
<circle cx="278.4" cy="254.2" r="4" fill="#eda100" stroke="#ffffff" stroke-width="2"/>
<circle cx="289.9" cy="257.5" r="4" fill="#eda100" stroke="#ffffff" stroke-width="2"/>
<circle cx="301.3" cy="267.3" r="4" fill="#eda100" stroke="#ffffff" stroke-width="2"/>
<circle cx="312.8" cy="273.5" r="4" fill="#eda100" stroke="#ffffff" stroke-width="2"/>
<circle cx="324.3" cy="280.0" r="4" fill="#eda100" stroke="#ffffff" stroke-width="2"/>
<circle cx="335.7" cy="280.0" r="4" fill="#eda100" stroke="#ffffff" stroke-width="2"/>
<circle cx="347.2" cy="283.3" r="4" fill="#eda100" stroke="#ffffff" stroke-width="2"/>
<circle cx="358.7" cy="289.5" r="4" fill="#eda100" stroke="#ffffff" stroke-width="2"/>
<circle cx="370.1" cy="292.7" r="4" fill="#eda100" stroke="#ffffff" stroke-width="2"/>
<circle cx="381.6" cy="292.7" r="4" fill="#eda100" stroke="#ffffff" stroke-width="2"/>
<circle cx="393.1" cy="292.7" r="4" fill="#eda100" stroke="#ffffff" stroke-width="2"/>
<circle cx="404.5" cy="302.5" r="4" fill="#eda100" stroke="#ffffff" stroke-width="2"/>
<circle cx="416.0" cy="315.3" r="4" fill="#eda100" stroke="#ffffff" stroke-width="2"/>
<circle cx="427.5" cy="315.3" r="4" fill="#eda100" stroke="#ffffff" stroke-width="2"/>
<circle cx="438.9" cy="315.3" r="4" fill="#eda100" stroke="#ffffff" stroke-width="2"/>
<circle cx="450.4" cy="315.3" r="4" fill="#eda100" stroke="#ffffff" stroke-width="2"/>
<circle cx="461.9" cy="315.3" r="4" fill="#eda100" stroke="#ffffff" stroke-width="2"/>
<circle cx="473.3" cy="315.3" r="4" fill="#eda100" stroke="#ffffff" stroke-width="2"/>
<circle cx="484.8" cy="324.7" r="4" fill="#eda100" stroke="#ffffff" stroke-width="2"/>
<circle cx="496.3" cy="324.7" r="4" fill="#eda100" stroke="#ffffff" stroke-width="2"/>
<circle cx="507.7" cy="328.0" r="4" fill="#eda100" stroke="#ffffff" stroke-width="2"/>
<circle cx="519.2" cy="328.0" r="4" fill="#eda100" stroke="#ffffff" stroke-width="2"/>
<circle cx="530.7" cy="328.0" r="4" fill="#eda100" stroke="#ffffff" stroke-width="2"/>
<circle cx="542.1" cy="328.0" r="4" fill="#eda100" stroke="#ffffff" stroke-width="2"/>
<circle cx="553.6" cy="328.0" r="4" fill="#eda100" stroke="#ffffff" stroke-width="2"/>
<circle cx="565.1" cy="328.0" r="4" fill="#eda100" stroke="#ffffff" stroke-width="2"/>
<circle cx="576.5" cy="328.0" r="4" fill="#eda100" stroke="#ffffff" stroke-width="2"/>
<circle cx="588.0" cy="328.0" r="4" fill="#eda100" stroke="#ffffff" stroke-width="2"/>
<text x="598.0" y="332.0" font-size="11.5" fill="#1c1c1c">M=0.10</text>
<path d="M72.0,260.7 L83.5,260.7 L94.9,260.7 L106.4,260.7 L117.9,260.7 L129.3,260.7 L140.8,260.7 L152.3,260.7 L163.7,260.7 L175.2,260.7 L186.7,260.7 L198.1,264.0 L209.6,267.3 L221.1,267.3 L232.5,267.3 L244.0,267.3 L255.5,267.3 L266.9,267.3 L278.4,270.5 L289.9,270.5 L301.3,276.7 L312.8,280.0 L324.3,286.5 L335.7,286.5 L347.2,286.5 L358.7,292.7 L370.1,296.0 L381.6,296.0 L393.1,296.0 L404.5,302.5 L416.0,315.3 L427.5,315.3 L438.9,315.3 L450.4,315.3 L461.9,315.3 L473.3,315.3 L484.8,324.7 L496.3,324.7 L507.7,328.0 L519.2,328.0 L530.7,328.0 L542.1,328.0 L553.6,328.0 L565.1,328.0 L576.5,328.0 L588.0,328.0" fill="none" stroke="#e87ba4" stroke-width="2" stroke-linejoin="round" stroke-linecap="round"/>
<circle cx="72.0" cy="260.7" r="4" fill="#e87ba4" stroke="#ffffff" stroke-width="2"/>
<circle cx="83.5" cy="260.7" r="4" fill="#e87ba4" stroke="#ffffff" stroke-width="2"/>
<circle cx="94.9" cy="260.7" r="4" fill="#e87ba4" stroke="#ffffff" stroke-width="2"/>
<circle cx="106.4" cy="260.7" r="4" fill="#e87ba4" stroke="#ffffff" stroke-width="2"/>
<circle cx="117.9" cy="260.7" r="4" fill="#e87ba4" stroke="#ffffff" stroke-width="2"/>
<circle cx="129.3" cy="260.7" r="4" fill="#e87ba4" stroke="#ffffff" stroke-width="2"/>
<circle cx="140.8" cy="260.7" r="4" fill="#e87ba4" stroke="#ffffff" stroke-width="2"/>
<circle cx="152.3" cy="260.7" r="4" fill="#e87ba4" stroke="#ffffff" stroke-width="2"/>
<circle cx="163.7" cy="260.7" r="4" fill="#e87ba4" stroke="#ffffff" stroke-width="2"/>
<circle cx="175.2" cy="260.7" r="4" fill="#e87ba4" stroke="#ffffff" stroke-width="2"/>
<circle cx="186.7" cy="260.7" r="4" fill="#e87ba4" stroke="#ffffff" stroke-width="2"/>
<circle cx="198.1" cy="264.0" r="4" fill="#e87ba4" stroke="#ffffff" stroke-width="2"/>
<circle cx="209.6" cy="267.3" r="4" fill="#e87ba4" stroke="#ffffff" stroke-width="2"/>
<circle cx="221.1" cy="267.3" r="4" fill="#e87ba4" stroke="#ffffff" stroke-width="2"/>
<circle cx="232.5" cy="267.3" r="4" fill="#e87ba4" stroke="#ffffff" stroke-width="2"/>
<circle cx="244.0" cy="267.3" r="4" fill="#e87ba4" stroke="#ffffff" stroke-width="2"/>
<circle cx="255.5" cy="267.3" r="4" fill="#e87ba4" stroke="#ffffff" stroke-width="2"/>
<circle cx="266.9" cy="267.3" r="4" fill="#e87ba4" stroke="#ffffff" stroke-width="2"/>
<circle cx="278.4" cy="270.5" r="4" fill="#e87ba4" stroke="#ffffff" stroke-width="2"/>
<circle cx="289.9" cy="270.5" r="4" fill="#e87ba4" stroke="#ffffff" stroke-width="2"/>
<circle cx="301.3" cy="276.7" r="4" fill="#e87ba4" stroke="#ffffff" stroke-width="2"/>
<circle cx="312.8" cy="280.0" r="4" fill="#e87ba4" stroke="#ffffff" stroke-width="2"/>
<circle cx="324.3" cy="286.5" r="4" fill="#e87ba4" stroke="#ffffff" stroke-width="2"/>
<circle cx="335.7" cy="286.5" r="4" fill="#e87ba4" stroke="#ffffff" stroke-width="2"/>
<circle cx="347.2" cy="286.5" r="4" fill="#e87ba4" stroke="#ffffff" stroke-width="2"/>
<circle cx="358.7" cy="292.7" r="4" fill="#e87ba4" stroke="#ffffff" stroke-width="2"/>
<circle cx="370.1" cy="296.0" r="4" fill="#e87ba4" stroke="#ffffff" stroke-width="2"/>
<circle cx="381.6" cy="296.0" r="4" fill="#e87ba4" stroke="#ffffff" stroke-width="2"/>
<circle cx="393.1" cy="296.0" r="4" fill="#e87ba4" stroke="#ffffff" stroke-width="2"/>
<circle cx="404.5" cy="302.5" r="4" fill="#e87ba4" stroke="#ffffff" stroke-width="2"/>
<circle cx="416.0" cy="315.3" r="4" fill="#e87ba4" stroke="#ffffff" stroke-width="2"/>
<circle cx="427.5" cy="315.3" r="4" fill="#e87ba4" stroke="#ffffff" stroke-width="2"/>
<circle cx="438.9" cy="315.3" r="4" fill="#e87ba4" stroke="#ffffff" stroke-width="2"/>
<circle cx="450.4" cy="315.3" r="4" fill="#e87ba4" stroke="#ffffff" stroke-width="2"/>
<circle cx="461.9" cy="315.3" r="4" fill="#e87ba4" stroke="#ffffff" stroke-width="2"/>
<circle cx="473.3" cy="315.3" r="4" fill="#e87ba4" stroke="#ffffff" stroke-width="2"/>
<circle cx="484.8" cy="324.7" r="4" fill="#e87ba4" stroke="#ffffff" stroke-width="2"/>
<circle cx="496.3" cy="324.7" r="4" fill="#e87ba4" stroke="#ffffff" stroke-width="2"/>
<circle cx="507.7" cy="328.0" r="4" fill="#e87ba4" stroke="#ffffff" stroke-width="2"/>
<circle cx="519.2" cy="328.0" r="4" fill="#e87ba4" stroke="#ffffff" stroke-width="2"/>
<circle cx="530.7" cy="328.0" r="4" fill="#e87ba4" stroke="#ffffff" stroke-width="2"/>
<circle cx="542.1" cy="328.0" r="4" fill="#e87ba4" stroke="#ffffff" stroke-width="2"/>
<circle cx="553.6" cy="328.0" r="4" fill="#e87ba4" stroke="#ffffff" stroke-width="2"/>
<circle cx="565.1" cy="328.0" r="4" fill="#e87ba4" stroke="#ffffff" stroke-width="2"/>
<circle cx="576.5" cy="328.0" r="4" fill="#e87ba4" stroke="#ffffff" stroke-width="2"/>
<circle cx="588.0" cy="328.0" r="4" fill="#e87ba4" stroke="#ffffff" stroke-width="2"/>
<text x="598.0" y="332.0" font-size="11.5" fill="#1c1c1c">M=0.12</text>
<text x="330" y="390" font-size="11.5" fill="#6f6f6f" text-anchor="middle">threshold T</text>
<text transform="translate(18,200) rotate(-90)" font-size="11.5" fill="#6f6f6f" text-anchor="middle">coverage</text>
<circle cx="77" cy="366" r="4" fill="#2a78d6"/>
<text x="87" y="370" font-size="11.5" fill="#6f6f6f">M=0.00</text>
<circle cx="142" cy="366" r="4" fill="#eb6834"/>
<text x="152" y="370" font-size="11.5" fill="#6f6f6f">M=0.04</text>
<circle cx="207" cy="366" r="4" fill="#1baf7a"/>
<text x="217" y="370" font-size="11.5" fill="#6f6f6f">M=0.08</text>
<circle cx="273" cy="366" r="4" fill="#eda100"/>
<text x="283" y="370" font-size="11.5" fill="#6f6f6f">M=0.10</text>
<circle cx="338" cy="366" r="4" fill="#e87ba4"/>
<text x="348" y="370" font-size="11.5" fill="#6f6f6f">M=0.12</text>
</svg>