<svg xmlns="http://www.w3.org/2000/svg" width="720" height="400" viewBox="0 0 720 400" font-family="-apple-system,BlinkMacSystemFont,'Segoe UI',Helvetica,Arial,sans-serif">
<rect width="720" height="400" fill="#ffffff"/>
<text x="72" y="26" font-size="15" font-weight="600" fill="#1c1c1c">Hop limit: connecting a flow without inventing one</text>
<text x="72" y="44" font-size="11.5" fill="#6f6f6f">pairs inside one documented flow vs pairs across two, Bank of Anthos + train-ticket</text>
<line x1="72" y1="344.0" x2="588" y2="344.0" stroke="#e8e8e6" stroke-width="1"/>
<text x="62" y="348.0" font-size="11" fill="#6f6f6f" text-anchor="end">0.00</text>
<line x1="72" y1="248.0" x2="588" y2="248.0" stroke="#e8e8e6" stroke-width="1"/>
<text x="62" y="252.0" font-size="11" fill="#6f6f6f" text-anchor="end">0.10</text>
<line x1="72" y1="152.0" x2="588" y2="152.0" stroke="#e8e8e6" stroke-width="1"/>
<text x="62" y="156.0" font-size="11" fill="#6f6f6f" text-anchor="end">0.20</text>
<line x1="72" y1="56.0" x2="588" y2="56.0" stroke="#e8e8e6" stroke-width="1"/>
<text x="62" y="60.0" font-size="11" fill="#6f6f6f" text-anchor="end">0.30</text>
<line x1="72.0" y1="344" x2="72.0" y2="348" stroke="#b9b9b5" stroke-width="1"/>
<text x="72.0" y="362.0" font-size="11" fill="#6f6f6f" text-anchor="middle">1</text>
<line x1="118.9" y1="344" x2="118.9" y2="348" stroke="#b9b9b5" stroke-width="1"/>
<text x="118.9" y="362.0" font-size="11" fill="#6f6f6f" text-anchor="middle">2</text>
<line x1="165.8" y1="344" x2="165.8" y2="348" stroke="#b9b9b5" stroke-width="1"/>
<text x="165.8" y="362.0" font-size="11" fill="#6f6f6f" text-anchor="middle">3</text>
<line x1="212.7" y1="344" x2="212.7" y2="348" stroke="#b9b9b5" stroke-width="1"/>
<text x="212.7" y="362.0" font-size="11" fill="#6f6f6f" text-anchor="middle">4</text>
<line x1="259.6" y1="344" x2="259.6" y2="348" stroke="#b9b9b5" stroke-width="1"/>
<text x="259.6" y="362.0" font-size="11" fill="#6f6f6f" text-anchor="middle">5</text>
<line x1="306.5" y1="344" x2="306.5" y2="348" stroke="#b9b9b5" stroke-width="1"/>
<text x="306.5" y="362.0" font-size="11" fill="#6f6f6f" text-anchor="middle">6</text>
<line x1="400.4" y1="344" x2="400.4" y2="348" stroke="#b9b9b5" stroke-width="1"/>
<text x="400.4" y="362.0" font-size="11" fill="#6f6f6f" text-anchor="middle">8</text>
<line x1="588.0" y1="344" x2="588.0" y2="348" stroke="#b9b9b5" stroke-width="1"/>
<text x="588.0" y="362.0" font-size="11" fill="#6f6f6f" text-anchor="middle">12</text>
<line x1="72" y1="344" x2="588" y2="344" stroke="#b9b9b5" stroke-width="1"/>
<path d="M72.0,167.9 L118.9,82.7 L165.8,77.0 L212.7,77.0 L259.6,77.0 L306.5,77.0 L400.4,77.0 L588.0,77.0" fill="none" stroke="#2a78d6" stroke-width="2" stroke-linejoin="round" stroke-linecap="round"/>
<circle cx="72.0" cy="167.9" r="4" fill="#2a78d6" stroke="#ffffff" stroke-width="2"/>
<circle cx="118.9" cy="82.7" r="4" fill="#2a78d6" stroke="#ffffff" stroke-width="2"/>
<circle cx="165.8" cy="77.0" r="4" fill="#2a78d6" stroke="#ffffff" stroke-width="2"/>
<circle cx="212.7" cy="77.0" r="4" fill="#2a78d6" stroke="#ffffff" stroke-width="2"/>
<circle cx="259.6" cy="77.0" r="4" fill="#2a78d6" stroke="#ffffff" stroke-width="2"/>
<circle cx="306.5" cy="77.0" r="4" fill="#2a78d6" stroke="#ffffff" stroke-width="2"/>
<circle cx="400.4" cy="77.0" r="4" fill="#2a78d6" stroke="#ffffff" stroke-width="2"/>
<circle cx="588.0" cy="77.0" r="4" fill="#2a78d6" stroke="#ffffff" stroke-width="2"/>
<text x="598.0" y="81.0" font-size="11.5" fill="#1c1c1c">coverage</text>
<path d="M72.0,330.1 L118.9,277.8 L165.8,260.3 L212.7,260.3 L259.6,260.3 L306.5,260.3 L400.4,260.3 L588.0,260.3" fill="none" stroke="#eb6834" stroke-width="2" stroke-linejoin="round" stroke-linecap="round"/>
<circle cx="72.0" cy="330.1" r="4" fill="#eb6834" stroke="#ffffff" stroke-width="2"/>
<circle cx="118.9" cy="277.8" r="4" fill="#eb6834" stroke="#ffffff" stroke-width="2"/>
<circle cx="165.8" cy="260.3" r="4" fill="#eb6834" stroke="#ffffff" stroke-width="2"/>
<circle cx="212.7" cy="260.3" r="4" fill="#eb6834" stroke="#ffffff" stroke-width="2"/>
<circle cx="259.6" cy="260.3" r="4" fill="#eb6834" stroke="#ffffff" stroke-width="2"/>
<circle cx="306.5" cy="260.3" r="4" fill="#eb6834" stroke="#ffffff" stroke-width="2"/>
<circle cx="400.4" cy="260.3" r="4" fill="#eb6834" stroke="#ffffff" stroke-width="2"/>
<circle cx="588.0" cy="260.3" r="4" fill="#eb6834" stroke="#ffffff" stroke-width="2"/>
<text x="598.0" y="264.3" font-size="11.5" fill="#1c1c1c">false connection</text>
<path d="M72.0,181.9 L118.9,148.9 L165.8,160.7 L212.7,160.7 L259.6,160.7 L306.5,160.7 L400.4,160.7 L588.0,160.7" fill="none" stroke="#1baf7a" stroke-width="2" stroke-linejoin="round" stroke-linecap="round"/>
<circle cx="72.0" cy="181.9" r="4" fill="#1baf7a" stroke="#ffffff" stroke-width="2"/>
<circle cx="118.9" cy="148.9" r="4" fill="#1baf7a" stroke="#ffffff" stroke-width="2"/>
<circle cx="165.8" cy="160.7" r="4" fill="#1baf7a" stroke="#ffffff" stroke-width="2"/>
<circle cx="212.7" cy="160.7" r="4" fill="#1baf7a" stroke="#ffffff" stroke-width="2"/>
<circle cx="259.6" cy="160.7" r="4" fill="#1baf7a" stroke="#ffffff" stroke-width="2"/>
<circle cx="306.5" cy="160.7" r="4" fill="#1baf7a" stroke="#ffffff" stroke-width="2"/>
<circle cx="400.4" cy="160.7" r="4" fill="#1baf7a" stroke="#ffffff" stroke-width="2"/>
<circle cx="588.0" cy="160.7" r="4" fill="#1baf7a" stroke="#ffffff" stroke-width="2"/>
<text x="598.0" y="164.7" font-size="11.5" fill="#1c1c1c">j</text>
<text x="330" y="390" font-size="11.5" fill="#6f6f6f" text-anchor="middle">hop limit</text>
<text transform="translate(18,200) rotate(-90)" font-size="11.5" fill="#6f6f6f" text-anchor="middle">share of pairs within the limit</text>
<circle cx="77" cy="366" r="4" fill="#2a78d6"/>
<text x="87" y="370" font-size="11.5" fill="#6f6f6f">coverage</text>
<circle cx="157" cy="366" r="4" fill="#eb6834"/>
<text x="167" y="370" font-size="11.5" fill="#6f6f6f">false connection</text>
<circle cx="294" cy="366" r="4" fill="#1baf7a"/>
<text x="304" y="370" font-size="11.5" fill="#6f6f6f">j</text>
</svg>